Coordinates
version=1
nRows=14
nColumns=42
inDegrees=yes

Units are S.I. units (second, meters, Newtons, ...)
If the header above contains a line with 'inDegrees', this indicates whether rotational values are in degrees (yes) or radians (no).

endheader
time	pelvis_tilt	pelvis_list	pelvis_rotation	pelvis_tx	pelvis_ty	pelvis_tz	hip_flexion_r	hip_adduction_r	hip_rotation_r	knee_angle_r	knee_adduction_r	knee_angle_r_beta	ankle_angle_r	subtalar_angle_r	mtp_angle_r	hip_flexion_l	hip_adduction_l	hip_rotation_l	knee_angle_l	knee_adduction_l	knee_angle_l_beta	ankle_angle_l	subtalar_angle_l	mtp_angle_l	lumbar_extension	lumbar_bending	lumbar_rotation	arm_flex_r	arm_add_r	arm_rot_r	elbow_flex_r	pro_sup_r	wrist_flex_r	wrist_dev_r	arm_flex_l	arm_add_l	arm_rot_l	elbow_flex_l	pro_sup_l	wrist_flex_l	wrist_dev_l
      2.90000000	      8.14648892	      6.92899478	     20.79010298	      0.67079646	      0.90657468	      0.50797263	     -7.11956464	      0.20246945	    -21.12163583	     17.83364734	      3.48333360	      0.31125586	     19.25313710	     -1.58061881	     -7.52762607	     22.15418923	     -7.70645170	      2.65035691	     24.89755908	      4.96006546	      0.43454438	      6.82751257	      7.31861818	     -7.52762607	    -26.11105011	     -7.73077107	     -5.58245977	     -7.06456259	    -27.05169719	    -47.64976369	     63.55777129	     90.00000001	      0.00000000	      0.00000000	      4.69813656	    -20.44989473	     11.35647212	     85.76893544	     90.00000001	      0.00000000	      0.00000000
      2.91000000	      8.36354173	      6.98305198	     20.29286441	      0.67340882	      0.90642691	      0.50805384	     -7.42027639	      0.15899279	    -21.03935789	     18.03817001	      3.43312284	      0.31482546	     19.22850153	     -1.47264760	     -7.52730584	     22.76888360	     -7.42687893	      2.72347698	     25.06434531	      5.03606535	      0.43745535	      6.76816954	      7.38546440	     -7.52730584	    -26.07599292	     -7.83727192	     -5.09467848	     -6.71253517	    -27.19082763	    -47.35638972	     63.90326547	     90.00000001	      0.00000000	      0.00000000	      4.40895412	    -20.33026472	     11.38195625	     85.72466015	     90.00000001	      0.00000000	      0.00000000
      2.92000000	      8.60647922	      7.05480189	     19.76609416	      0.67610605	      0.90625420	      0.50814260	     -7.76895132	      0.09696056	    -20.93270596	     18.22276813	      3.38314462	      0.31804730	     19.28380660	     -1.36298728	     -7.52697489	     23.34533671	     -7.14875127	      2.80555644	     25.31476670	      5.11145219	      0.44182603	      6.71437866	      7.43505975	     -7.52697489	    -26.07041116	     -7.95581361	     -4.63516432	     -6.38656009	    -27.27415469	    -46.94286740	     64.40415393	     90.00000001	      0.00000000	      0.00000000	      4.05932126	    -20.21607254	     11.36965203	     85.70720730	     90.00000001	      0.00000000	      0.00000000
      2.93000000	      9.12388338	      7.21197081	     19.34397243	      0.67892761	      0.90636547	      0.50803152	     -8.64122710	      0.06629682	    -20.63919844	     18.07036829	      3.54242994	      0.31538742	     19.93364764	     -1.10467578	     -7.52621320	     23.70060583	     -6.83822014	      2.64451997	     25.84069443	      5.09747948	      0.45100520	      6.81843294	      7.39308078	     -7.52621320	    -26.43609891	     -7.96503234	     -4.47077171	     -6.69460396	    -27.52660545	    -45.38154585	     66.10217034	     90.00000001	      0.00000000	      0.00000000	      3.42189552	    -20.09420967	     10.82226197	     86.16609628	     90.00000001	      0.00000000	      0.00000000
      2.94000000	      9.33703642	      7.23251847	     18.77607218	      0.68164893	      0.90611994	      0.50812396	     -8.88125819	      0.02569213	    -20.48890988	     18.35486375	      3.46863643	      0.32035281	     19.85992259	     -0.96251671	     -7.52588983	     24.21872702	     -6.57351001	      2.82704648	     26.05686029	      5.16708932	      0.45477800	      6.74395923	      7.47757248	     -7.52588983	    -26.37607278	     -8.05683399	     -3.95455087	     -6.35455297	    -27.55220838	    -45.03669372	     66.42493882	     90.00000001	      0.00000000	      0.00000000	      3.05047321	    -19.94917233	     10.88575009	     86.07695756	     90.00000001	      0.00000000	      0.00000000
      2.95000000	      9.77370188	      7.30632080	     18.28541245	      0.68429521	      0.90598763	      0.50806538	     -9.50457666	      0.04240953	    -20.17143745	     18.39109743	      3.48056910	      0.32098520	     20.41599120	     -0.78732647	     -7.52519866	     24.56372132	     -6.33550675	      3.07642437	     26.49239280	      5.36438889	      0.46237948	      6.81178173	      7.33798538	     -7.52519866	    -26.63356094	     -8.02319645	     -3.71803386	     -6.50098933	    -27.76862874	    -43.65289127	     67.95373763	     90.00000001	      0.00000000	      0.00000000	      2.46365368	    -19.86718745	     10.56848578	     86.37791753	     90.00000001	      0.00000000	      0.00000000
      2.96000000	     10.05678682	      7.33057134	     17.76812115	      0.68700058	      0.90574215	      0.50811678	     -9.84612853	      0.05174195	    -19.94950136	     18.61671985	      3.39243694	      0.32492306	     20.60599531	     -0.68540543	     -7.52474049	     24.96897639	     -6.12500948	      3.34234080	     26.78346077	      5.59038309	      0.46745958	      6.76468663	      7.30553755	     -7.52474049	    -26.67320991	     -8.04498123	     -3.40029026	     -6.23789901	    -27.73238814	    -42.91270919	     68.77695595	     90.00000001	      0.00000000	      0.00000000	      1.97284316	    -19.79094129	     10.57066812	     86.30245312	     90.00000001	      0.00000000	      0.00000000
      2.97000000	     10.26260629	      7.29624121	     17.20872372	      0.68967374	      0.90534449	      0.50807982	    -10.05238618	      0.03082042	    -19.74266366	     18.91550339	      3.32474022	      0.33013781	     20.57647914	     -0.55073922	     -7.52440947	     25.39460288	     -5.88320518	      3.59019327	     27.01243864	      5.65489075	      0.47145599	      6.68176362	      7.34947696	     -7.52440947	    -26.60286867	     -8.03973245	     -2.91500470	     -5.98137402	    -27.69005394	    -42.45769741	     69.20039834	     90.00000001	      0.00000000	      0.00000000	      1.54950761	    -19.61754683	     10.64324250	     86.22165578	     90.00000001	      0.00000000	      0.00000000
      2.98000000	     10.64044446	      7.22405098	     16.81849428	      0.69227971	      0.90499557	      0.50794414	    -10.56409732	      0.20824597	    -19.39024908	     18.94989576	      3.32500236	      0.33073807	     21.22860385	     -0.55358185	     -7.52391357	     25.67446582	     -5.74599841	      4.17915907	     27.28839347	      5.99569547	      0.47627231	      6.66697311	      7.03699367	     -7.52391357	    -26.77309490	     -7.83610805	     -2.74799871	     -6.20027290	    -27.82181243	    -40.98061739	     70.88316017	     90.00000001	      0.00000000	      0.00000000	      0.93978142	    -19.53002969	     10.51247912	     86.35030260	     90.00000001	      0.00000000	      0.00000000
      2.99000000	     10.79854442	      7.15502433	     16.29619523	      0.69503172	      0.90448935	      0.50787144	    -10.70825164	      0.20722840	    -19.17889251	     19.27454726	      3.26302219	      0.33640431	     21.11881815	     -0.40631669	     -7.52359581	     26.05854343	     -5.53313696	      4.37748003	     27.49463886	      6.04604190	      0.47987197	      6.57672366	      7.07504525	     -7.52359581	    -26.65134009	     -7.81229833	     -2.29915542	     -5.92384111	    -27.66909381	    -40.53745553	     71.20613662	     90.00000001	      0.00000000	      0.00000000	      0.50842248	    -19.31491029	     10.63863034	     86.20216146	     90.00000001	      0.00000000	      0.00000000
      3.00000000	     11.09636106	      7.03976678	     15.96543600	      0.69772248	      0.90403280	      0.50765700	    -11.12711293	      0.42158249	    -18.80936227	     19.32011870	      3.20422013	      0.33719968	     21.59530749	     -0.42225102	     -7.52322947	     26.29259244	     -5.43283694	      4.89091889	     27.65406179	      6.37913322	      0.48265443	      6.50702010	      6.77893793	     -7.52322947	    -26.71098464	     -7.56524466	     -2.24682369	     -5.89867656	    -27.66170308	    -39.06866724	     72.73746965	     90.00000001	      0.00000000	      0.00000000	     -0.06789466	    -19.28131027	     10.67446856	     86.03403860	     90.00000001	      0.00000000	      0.00000000
      3.01000000	     11.23933888	      6.93279662	     15.52645828	      0.70068964	      0.90346319	      0.50744290	    -11.32372985	      0.46155059	    -18.68496967	     19.55277145	      3.18124208	      0.34126024	     21.53396467	     -0.33759922	     -7.52303135	     26.56456017	     -5.23676328	      5.05279674	     27.77662436	      6.40383757	      0.48479355	      6.43638127	      6.79858462	     -7.52303135	    -26.56002726	     -7.48841535	     -1.80145739	     -5.70271761	    -27.42248086	    -38.66601530	     72.98564865	     90.00000001	      0.00000000	      0.00000000	     -0.49521429	    -19.02113162	     10.82940900	     85.92652726	     90.00000001	      0.00000000	      0.00000000
      3.02000000	     11.45515544	      6.75954489	     15.23836116	      0.70351865	      0.90285549	      0.50708810	    -11.68620570	      0.70402258	    -18.34077492	     19.54386970	      3.13610928	      0.34110487	     21.98976769	     -0.35470317	     -7.52269605	     26.75559741	     -5.14797264	      5.42426071	     27.83310279	      6.62240450	      0.48577928	      6.36128549	      6.51771306	     -7.52269605	    -26.51437818	     -7.16631960	     -1.81927759	     -5.61771806	    -27.39001862	    -36.97090444	     74.56751280	     90.00000001	      0.00000000	      0.00000000	     -1.11290524	    -19.00377621	     10.95382447	     85.63626987	     90.00000001	      0.00000000	      0.00000000
      3.03000000	     11.61919849	      6.57044776	     14.95879804	      0.70654946	      0.90223381	      0.50664848	    -12.01877811	      0.89574784	    -18.12743080	     19.52325871	      3.16604428	      0.34074515	     22.23635620	     -0.36063862	     -7.52237928	     26.90460846	     -5.03951832	      5.71311325	     27.84197477	      6.72541814	      0.48593413	      6.29371479	      6.25132368	     -7.52237928	    -26.41682598	     -6.88471198	     -1.65932486	     -5.63207249	    -27.33504096	    -35.54762232	     75.57447867	     90.00000001	      0.00000000	      0.00000000	     -1.66634717	    -18.82367193	     11.07804619	     85.48063553	     90.00000001	      0.00000000	      0.00000000
